<?xml version="1.0" encoding="iso-8859-1"?>
<!-- Generator: Adobe Illustrator 17.0.0, SVG Export Plug-In . SVG Version: 6.00 Build 0)  -->
<!DOCTYPE svg PUBLIC "-//W3C//DTD SVG 1.1//EN" "http://www.w3.org/Graphics/SVG/1.1/DTD/svg11.dtd">
<svg version="1.1" id="&#x56FE;&#x5C42;_1" xmlns="http://www.w3.org/2000/svg" xmlns:xlink="http://www.w3.org/1999/xlink" x="0px"
	 y="0px" width="16px" height="16px" viewBox="0 0 16 16" style="enable-background:new 0 0 16 16;" xml:space="preserve">
<g>
	<path style="fill:#9FA1A3;" d="M12.444,7.111H3.556H1.651V16h12.698V7.111H12.444z M8.381,11.823v1.681H7.619v-1.681
		c-0.443-0.157-0.762-0.576-0.762-1.073c0-0.631,0.512-1.143,1.143-1.143s1.143,0.512,1.143,1.143
		C9.143,11.247,8.824,11.666,8.381,11.823z"/>
	<path style="fill:#9FA1A3;" d="M5.714,3.81c0-1.26,1.025-2.286,2.286-2.286s2.286,1.025,2.286,2.286v3.302h1.524V3.81
		C11.809,1.709,10.1,0,8,0S4.19,1.709,4.19,3.81v3.302h1.524V3.81z"/>
	<path style="fill:#9FA1A3;" d="M11.833,5.468"/>
</g>
</svg>
